<svg data-v-840044c6="" width="19" height="22" viewBox="0 0 19 22" fill="none" xmlns="http://www.w3.org/2000/svg" class="mr-2"><path d="M10.0913 1V8.27273L7.36399 6.45455L4.63672 8.27273V1" stroke="#2e2e2e" stroke-width="2" stroke-linecap="round" stroke-linejoin="round"></path> <path d="M2.81818 1C1.81364 1 1 1.81364 1 2.81818V19.1818C1 18.1773 1.81364 17.3636 2.81818 17.3636H15.5455C16.55 17.3636 17.3636 16.55 17.3636 15.5455V2.81818C17.3636 1.81364 16.55 1 15.5455 1H2.81818Z" stroke="#2e2e2e" stroke-width="2" stroke-linecap="round" stroke-linejoin="round"></path> <path d="M15.5455 21C16.55 21 17.3636 20.1863 17.3636 19.1818V17.3636V15.5454C17.3636 16.55 16.55 17.3636 15.5455 17.3636H2.81818C1.81364 17.3636 1 18.1772 1 19.1818C1 20.1863 1.81364 21 2.81818 21H15.5455Z" stroke="#2e2e2e" stroke-width="2" stroke-linecap="round" stroke-linejoin="round"></path></svg>