<svg data-v-840044c6="" width="24" height="22" viewBox="0 0 24 22" fill="none" xmlns="http://www.w3.org/2000/svg" class="mr-2"><path d="M23 2.4C23 1.6268 22.3732 1 21.6 1H2.4C1.6268 1 1 1.6268 1 2.4V14.6C1 15.3732 1.6268 16 2.4 16H7.32712C7.75242 16 8.15466 16.1933 8.42034 16.5254L10.9068 19.6335C11.4672 20.334 12.5328 20.334 13.0932 19.6335L15.5797 16.5254C15.8453 16.1933 16.2476 16 16.6729 16H21.6C22.3732 16 23 15.3732 23 14.6V2.4Z" stroke="#FF884B" stroke-width="2" stroke-linecap="round" stroke-linejoin="round"></path> <path d="M7 6H17" stroke="#FF884B" stroke-width="2" stroke-linecap="round" stroke-linejoin="round"></path> <path d="M7 11H13" stroke="#FF884B" stroke-width="2" stroke-linecap="round" stroke-linejoin="round"></path></svg>