<svg width="88" height="42" viewBox="0 0 88 42" fill="none" xmlns="http://www.w3.org/2000/svg">
<path d="M29.3714 0H14.8348C13.4274 0 12.1682 0.893851 11.7238 2.23463L11.372 3.27745L0.00195312 36.4803H7.0758L16.094 9.94409H28.6492L32.1861 0H29.3714Z" fill="#2DD5FA"/>
<path d="M31.3313 0H42.868L40.2199 7.70946C39.757 9.05024 38.5163 9.94409 37.1089 9.94409H25.5723L28.2203 2.23463C28.6833 0.893851 29.924 0 31.3313 0Z" fill="#F68521"/>
<path d="M19.9094 26.5383H28.1499C29.5572 26.5383 30.8164 25.6445 31.2609 24.3037L33.9089 16.5942H23.3167L25.5944 9.96484H14.7429C13.3355 9.96484 12.0763 10.8587 11.6319 12.1995L3.29883 36.4824H14.1503C15.5577 36.4824 16.8169 35.5886 17.2613 34.2478L19.9094 26.5383Z" fill="#1080EB"/>
<path d="M55.8941 7.52609C54.8201 7.48884 53.672 7.84266 53.0239 8.69927C52.7091 9.10895 52.5239 9.61174 52.3572 10.1145C51.9128 11.4181 51.4499 12.703 51.0054 14.0065C50.9499 14.1555 50.8943 14.3231 50.8573 14.4721C50.7647 14.8072 50.7462 15.1424 50.8758 15.459C50.9869 15.7197 51.2091 15.9246 51.4498 16.0549C51.8943 16.2598 52.4498 16.2784 52.9313 16.2598C52.9498 16.2598 52.9498 16.2598 52.9683 16.2598C53.3202 16.2411 53.672 16.1853 54.0053 16.0549C54.5609 15.8501 55.0423 15.4776 55.3756 14.9748C55.7275 14.4534 55.9497 13.8389 56.1534 13.243C56.5423 12.1257 56.9126 11.027 57.3015 9.90969C57.5052 9.33241 57.6904 8.68064 57.3756 8.15923C57.0978 7.69368 56.4682 7.54471 55.8941 7.52609Z" fill="#1080EB"/>
<path d="M70.483 0.00227345H55.7242C50.354 -0.109458 45.4283 3.91287 43.9468 8.60558L39.2062 23.6521C38.0581 27.2647 39.1692 30.9332 42.9654 32.0692L43.1876 32.1809C43.3543 32.2554 43.4283 32.4416 43.3728 32.6278L41.1506 39.7041C41.058 40.0207 41.3914 40.2814 41.6691 40.1138L54.2613 32.9258C54.7057 32.6651 55.1872 32.4975 55.6687 32.4044H58.2612C58.2427 31.6409 58.3352 30.7843 58.5575 29.8345L62.4092 17.4696C63.5573 13.8756 67.3905 10.7843 71.4089 10.9519H75.5014L76.4087 7.87933C77.4457 3.29835 74.631 -0.0163484 70.483 0.00227345ZM62.0573 8.54972C61.8907 9.68565 61.4463 10.7471 61.0759 11.8272C60.3537 13.9314 59.7796 16.2778 58.0575 17.6931C58.1501 18.1027 58.4278 18.4379 58.613 18.8104C58.8167 19.1828 58.9278 19.6484 58.6871 20.0022C58.576 20.1698 58.3908 20.2815 58.2056 20.3932C57.4279 20.8774 56.6501 21.3616 55.8724 21.8271C55.6316 21.9761 55.3539 22.1251 55.1131 22.0133C54.9094 21.9389 54.8168 21.734 54.7243 21.5292C54.465 20.9891 54.2243 20.4677 53.965 19.9277C52.5391 20.1512 51.0577 20.3746 49.6503 20.0767C48.6319 19.8718 47.6319 19.3504 46.9838 18.5124C46.2801 17.6372 46.0579 16.4082 46.2616 15.3095C46.3912 14.6018 46.669 13.9128 46.9097 13.2238C47.6319 11.1568 48.0763 8.94078 49.3355 7.15308C51.2059 4.52739 54.6317 3.29835 57.8353 3.5963C57.8908 3.5963 57.9279 3.5963 57.9834 3.61492C59.2797 3.76389 60.6129 4.1922 61.4092 5.23502C62.0759 6.18474 62.224 7.4324 62.0573 8.54972Z" fill="#1080EB"/>
<path d="M83.8299 12.1256H72.0154C68.1822 11.9952 64.5527 14.714 63.3676 18.5129L59.5714 30.6916C58.7751 34.0063 60.6084 36.3154 63.5157 36.4644H67.6452L68.0526 36.5947C68.1452 36.6134 68.2193 36.6692 68.2933 36.7251L74.108 41.8834C74.3487 42.1068 74.7376 41.9951 74.8302 41.6785L76.4597 36.4458C79.5708 36.1664 82.7929 33.7084 83.941 30.2261L87.8112 17.8053C88.626 14.6395 86.7001 12.2746 83.8299 12.1256ZM77.793 31.8834H74.7931C74.4413 31.8834 74.1635 31.6041 74.1635 31.2503V29.4626H69.5711L68.4045 31.213C68.1267 31.6413 67.6452 31.8834 67.1452 31.8834H64.2379C63.9602 31.8834 63.7935 31.5668 63.9602 31.3434L73.645 17.3583C73.8858 17.0045 74.3117 16.7811 74.7376 16.7811H77.5338C77.8671 16.7811 78.1264 17.0231 78.1449 17.377L78.5337 31.1385C78.5523 31.5482 78.2189 31.8834 77.793 31.8834Z" fill="#F68521"/>
<path d="M74.7406 20.6328C74.4998 21.3032 74.2035 21.9736 73.8517 22.6067C73.3887 23.4633 72.8702 24.2641 72.3517 25.0834C72.2221 25.2883 72.074 25.4931 71.9443 25.698C71.8703 25.7911 71.8147 25.9028 71.7407 25.9959C71.7221 26.0145 71.6295 26.1076 71.7221 26.1076C71.8518 26.1076 71.9814 26.1076 72.0925 26.1076C72.4629 26.1076 72.8332 26.1076 73.2036 26.1076C73.5739 26.1076 73.9628 26.1076 74.3332 26.1076C74.2961 24.2641 74.3517 22.4019 74.9072 20.6328H74.8887C74.8517 20.6328 74.7961 20.6328 74.7406 20.6328Z" fill="#F68521"/>
</svg>
