<svg data-v-45d333c8="" data-v-840044c6="" width="21" height="24" viewBox="0 0 21 24" fill="none" xmlns="http://www.w3.org/2000/svg" class="mr-2"><path data-v-45d333c8="" fill-rule="evenodd" clip-rule="evenodd" d="M6.12597 4.99219C6.12597 7.47314 8.12161 9.48437 10.5833 9.48437C13.0451 9.48437 15.0407 7.47314 15.0407 4.99219C15.0407 2.51123 13.0451 0.5 10.5833 0.5C8.12161 0.5 6.12597 2.51123 6.12597 4.99219ZM10.5833 8.13672C8.86013 8.13672 7.46318 6.72885 7.46318 4.99219C7.46318 3.25552 8.86013 1.84766 10.5833 1.84766C12.3065 1.84766 13.7035 3.25552 13.7035 4.99219C13.7035 6.72885 12.3065 8.13672 10.5833 8.13672Z" fill="#2e2e2e"></path> <path data-v-45d333c8="" fill-rule="evenodd" clip-rule="evenodd" d="M16.155 16.4473C16.155 17.0675 16.654 17.5703 17.2694 17.5703H17.938C19.1689 17.5703 20.1667 16.5647 20.1667 15.3242C20.1667 14.0837 19.1689 13.0781 17.938 13.0781H17.2694C16.654 13.0781 16.155 13.581 16.155 14.2012V16.4473ZM17.4922 16.2227V14.4258H17.938C18.4303 14.4258 18.8295 14.828 18.8295 15.3242C18.8295 15.8204 18.4303 16.2227 17.938 16.2227H17.4922Z" fill="#2e2e2e"></path> <path data-v-45d333c8="" fill-rule="evenodd" clip-rule="evenodd" d="M3.22868 16.2227C2.73633 16.2227 2.33721 15.8204 2.33721 15.3242C2.33721 14.828 2.73633 14.4258 3.22868 14.4258H3.67442V16.2227H3.22868ZM1 15.3242C1 16.5647 1.99781 17.5703 3.22868 17.5703H3.89729C4.51268 17.5703 5.01163 17.0675 5.01163 16.4473V14.2012C5.01163 13.581 4.51268 13.0781 3.89729 13.0781H3.22868C1.99781 13.0781 1 14.0837 1 15.3242Z" fill="#2e2e2e"></path> <path data-v-45d333c8="" fill-rule="evenodd" clip-rule="evenodd" d="M4.71877 11.853C4.99986 12.0943 5.42185 12.0603 5.6613 11.777C6.84787 10.3732 8.61222 9.48437 10.5833 9.48437C12.5545 9.48437 14.3188 10.3732 15.5054 11.777C15.7448 12.0603 16.1668 12.0943 16.4479 11.853C16.729 11.6116 16.7628 11.1864 16.5233 10.9031C15.0936 9.21169 12.9629 8.13672 10.5833 8.13672C8.20379 8.13672 6.073 9.21169 4.64336 10.9031C4.40391 11.1864 4.43767 11.6117 4.71877 11.853Z" fill="#2e2e2e"></path> <path data-v-45d333c8="" fill-rule="evenodd" clip-rule="evenodd" d="M10.2025 23.38C10.3827 23.5059 10.6128 23.5347 10.8181 23.4571L17.9499 20.7618C18.2108 20.6632 18.3837 20.4117 18.3837 20.1309V16.8965C18.3837 16.5243 18.0844 16.2227 17.7151 16.2227C17.3459 16.2227 17.0465 16.5243 17.0465 16.8965V19.6639L11.2519 21.8538V13.8595L17.0465 11.6696V13.752C17.0465 14.1241 17.3459 14.4258 17.7151 14.4258C18.0844 14.4258 18.3837 14.1241 18.3837 13.752V10.6973C18.3837 10.4763 18.2762 10.2693 18.0959 10.1434C17.9157 10.0175 17.6857 9.98874 17.4803 10.0663L10.3486 12.7617C10.0876 12.8603 9.91473 13.1117 9.91473 13.3926V22.8262C9.91473 23.0472 10.0223 23.2541 10.2025 23.38Z" fill="#2e2e2e"></path> <path data-v-45d333c8="" fill-rule="evenodd" clip-rule="evenodd" d="M10.9642 23.38C11.1444 23.2541 11.2519 23.0472 11.2519 22.8262V13.3926C11.2519 13.1117 11.0791 12.8603 10.8181 12.7617L3.68631 10.0663C3.48099 9.98874 3.25096 10.0175 3.07072 10.1434C2.89048 10.2693 2.78295 10.4763 2.78295 10.6973V13.752C2.78295 14.1241 3.08229 14.4258 3.45155 14.4258C3.82081 14.4258 4.12015 14.1241 4.12015 13.752V11.6696L9.91473 13.8595V21.8538L4.12015 19.6639V16.8965C4.12015 16.5243 3.82081 16.2227 3.45155 16.2227C3.08229 16.2227 2.78295 16.5243 2.78295 16.8965V20.1309C2.78295 20.4117 2.95583 20.6632 3.21679 20.7618L10.3486 23.4571C10.5539 23.5347 10.7839 23.5059 10.9642 23.38Z" fill="#2e2e2e"></path> <path data-v-45d333c8="" d="M10.5833 9.48437C8.12161 9.48437 6.12597 7.47314 6.12597 4.99219C6.12597 2.51123 8.12161 0.5 10.5833 0.5C13.0451 0.5 15.0407 2.51123 15.0407 4.99219C15.0407 7.47314 13.0451 9.48437 10.5833 9.48437ZM10.5833 9.48437C8.61222 9.48437 6.84787 10.3732 5.6613 11.777C5.42185 12.0603 4.99986 12.0943 4.71877 11.853C4.43767 11.6117 4.40391 11.1864 4.64336 10.9031C6.073 9.21169 8.20379 8.13672 10.5833 8.13672M10.5833 9.48437C12.5545 9.48437 14.3188 10.3732 15.5054 11.777C15.7448 12.0603 16.1668 12.0943 16.4479 11.853C16.729 11.6116 16.7628 11.1864 16.5233 10.9031C15.0936 9.21169 12.9629 8.13672 10.5833 8.13672M10.5833 8.13672C8.86013 8.13672 7.46318 6.72885 7.46318 4.99219C7.46318 3.25552 8.86013 1.84766 10.5833 1.84766C12.3065 1.84766 13.7035 3.25552 13.7035 4.99219C13.7035 6.72885 12.3065 8.13672 10.5833 8.13672ZM17.2694 17.5703C16.654 17.5703 16.155 17.0675 16.155 16.4473V14.2012C16.155 13.581 16.654 13.0781 17.2694 13.0781H17.938C19.1689 13.0781 20.1667 14.0837 20.1667 15.3242C20.1667 16.5647 19.1689 17.5703 17.938 17.5703H17.2694ZM17.4922 14.4258V16.2227H17.938C18.4303 16.2227 18.8295 15.8204 18.8295 15.3242C18.8295 14.828 18.4303 14.4258 17.938 14.4258H17.4922ZM2.33721 15.3242C2.33721 15.8204 2.73633 16.2227 3.22868 16.2227H3.67442V14.4258H3.22868C2.73633 14.4258 2.33721 14.828 2.33721 15.3242ZM3.22868 17.5703C1.99781 17.5703 1 16.5647 1 15.3242C1 14.0837 1.99781 13.0781 3.22868 13.0781H3.89729C4.51268 13.0781 5.01163 13.581 5.01163 14.2012V16.4473C5.01163 17.0675 4.51268 17.5703 3.89729 17.5703H3.22868ZM10.8181 23.4571C10.6128 23.5347 10.3827 23.5059 10.2025 23.38C10.0223 23.2541 9.91473 23.0472 9.91473 22.8262V13.3926C9.91473 13.1117 10.0876 12.8603 10.3486 12.7617L17.4803 10.0663C17.6857 9.98874 17.9157 10.0175 18.0959 10.1434C18.2762 10.2693 18.3837 10.4763 18.3837 10.6973V13.752C18.3837 14.1241 18.0844 14.4258 17.7151 14.4258C17.3459 14.4258 17.0465 14.1241 17.0465 13.752V11.6696L11.2519 13.8595V21.8538L17.0465 19.6639V16.8965C17.0465 16.5243 17.3459 16.2227 17.7151 16.2227C18.0844 16.2227 18.3837 16.5243 18.3837 16.8965V20.1309C18.3837 20.4117 18.2108 20.6632 17.9499 20.7618L10.8181 23.4571ZM11.2519 22.8262C11.2519 23.0472 11.1444 23.2541 10.9642 23.38C10.7839 23.5059 10.5539 23.5347 10.3486 23.4571L3.21679 20.7618C2.95583 20.6632 2.78295 20.4117 2.78295 20.1309V16.8965C2.78295 16.5243 3.08229 16.2227 3.45155 16.2227C3.82081 16.2227 4.12015 16.5243 4.12015 16.8965V19.6639L9.91473 21.8538V13.8595L4.12015 11.6696V13.752C4.12015 14.1241 3.82081 14.4258 3.45155 14.4258C3.08229 14.4258 2.78295 14.1241 2.78295 13.752V10.6973C2.78295 10.4763 2.89048 10.2693 3.07072 10.1434C3.25096 10.0175 3.48099 9.98874 3.68631 10.0663L10.8181 12.7617C11.0791 12.8603 11.2519 13.1117 11.2519 13.3926V22.8262Z" stroke="#2e2e2e" stroke-width="0.2" stroke-miterlimit="10" stroke-linecap="round" stroke-linejoin="round"></path></svg>