<svg width="24" height="25" viewBox="0 0 24 25" fill="none" xmlns="http://www.w3.org/2000/svg">
<path d="M9.61905 2.06494H2.95238C2.4264 2.06494 2 2.49562 2 3.02689V9.76053C2 10.2918 2.4264 10.7225 2.95238 10.7225H9.61905C10.145 10.7225 10.5714 10.2918 10.5714 9.76053V3.02689C10.5714 2.49562 10.145 2.06494 9.61905 2.06494Z" fill="#FFAB7F"/>
<path d="M21.0478 2.06494H14.3811C13.8551 2.06494 13.4287 2.49562 13.4287 3.02689V9.76053C13.4287 10.2918 13.8551 10.7225 14.3811 10.7225H21.0478C21.5737 10.7225 22.0001 10.2918 22.0001 9.76053V3.02689C22.0001 2.49562 21.5737 2.06494 21.0478 2.06494Z" fill="#FFAB7F"/>
<path d="M9.61905 13.6084H2.95238C2.4264 13.6084 2 14.0391 2 14.5703V21.304C2 21.8353 2.4264 22.2659 2.95238 22.2659H9.61905C10.145 22.2659 10.5714 21.8353 10.5714 21.304V14.5703C10.5714 14.0391 10.145 13.6084 9.61905 13.6084Z" fill="#FFAB7F"/>
<path d="M21.0478 13.6084H14.3811C13.8551 13.6084 13.4287 14.0391 13.4287 14.5703V21.304C13.4287 21.8353 13.8551 22.2659 14.3811 22.2659H21.0478C21.5737 22.2659 22.0001 21.8353 22.0001 21.304V14.5703C22.0001 14.0391 21.5737 13.6084 21.0478 13.6084Z" fill="#FFAB7F"/>
</svg>
